<?xml version="1.0" standalone="no"?>
<!DOCTYPE svg PUBLIC "-//W3C//DTD SVG 20010904//EN"
 "http://www.w3.org/TR/2001/REC-SVG-20010904/DTD/svg10.dtd">
<svg version="1.0" xmlns="http://www.w3.org/2000/svg"
 width="800.000000pt" height="800.000000pt" viewBox="0 0 800.000000 800.000000"
 preserveAspectRatio="xMidYMid meet">

<g transform="translate(0.000000,800.000000) scale(0.100000,-0.100000)"
fill="#000000" stroke="none">
<path d="M3410 7262 c-16 -17 -30 -40 -30 -51 0 -12 20 -69 45 -126 49 -115
85 -239 85 -292 0 -44 -27 -96 -111 -214 -96 -135 -122 -195 -122 -284 0 -45
8 -91 21 -128 39 -110 196 -346 246 -371 55 -27 126 15 126 74 0 17 -21 56
-57 106 -66 92 -149 247 -158 297 -9 47 18 106 105 227 103 143 125 196 124
300 0 52 -7 109 -18 145 -29 97 -116 302 -135 320 -10 9 -35 18 -54 22 -31 5
-40 1 -67 -25z"/>
<path d="M3954 7280 c-28 -11 -54 -48 -54 -76 0 -12 15 -54 34 -95 47 -104 86
-224 92 -289 5 -48 2 -62 -24 -112 -17 -31 -56 -91 -87 -134 -87 -117 -119
-193 -119 -279 0 -89 21 -151 91 -267 83 -137 151 -225 184 -237 56 -20 119
27 119 87 0 11 -20 47 -44 80 -101 137 -176 280 -176 337 0 41 22 82 109 205
149 209 160 301 70 548 -77 210 -121 262 -195 232z"/>
<path d="M4448 7260 c-38 -39 -36 -58 27 -208 25 -62 54 -147 63 -191 15 -73
15 -81 -1 -122 -10 -24 -56 -98 -102 -163 -119 -167 -145 -255 -109 -377 39
-129 207 -387 266 -408 59 -21 128 36 114 95 -4 13 -36 65 -72 116 -71 101
-132 218 -141 272 -8 52 11 96 93 208 124 172 152 250 134 377 -11 76 -54 206
-108 324 -50 110 -105 136 -164 77z"/>
<path d="M3026 5599 c-17 -13 -66 -99 -131 -229 l-104 -207 -78 -6 c-43 -4
-181 -9 -308 -13 -126 -3 -247 -10 -267 -15 -20 -5 -46 -21 -57 -36 -20 -24
-21 -39 -21 -279 l0 -254 29 -32 29 -33 121 -3 c110 -3 121 -5 121 -22 0 -10
11 -124 25 -252 13 -128 38 -363 54 -523 17 -159 80 -769 141 -1355 61 -586
122 -1173 135 -1305 14 -132 27 -259 30 -283 l6 -42 1249 0 1248 0 6 38 c3 20
33 300 66 622 33 322 78 756 100 965 22 209 60 574 84 810 25 237 66 636 92
887 l48 456 119 4 119 3 29 33 29 32 0 254 c0 240 -1 255 -21 279 -29 38 -68
44 -319 51 -124 4 -262 9 -308 13 l-83 6 -104 207 c-65 130 -114 216 -131 229
l-27 21 -947 0 -947 0 -27 -21z m1926 -414 c85 -169 113 -217 136 -229 20 -10
99 -17 299 -25 149 -6 285 -11 302 -11 l31 0 0 -105 0 -105 -1720 0 -1720 0 0
105 0 105 33 0 c17 0 153 5 301 11 201 8 277 14 298 25 23 12 50 58 136 229
l107 215 845 0 845 0 107 -215z m468 -712 c0 -10 -4 -56 -10 -103 -5 -47 -23
-218 -40 -380 -16 -162 -52 -511 -80 -775 -28 -264 -91 -871 -140 -1350 -49
-478 -92 -885 -95 -902 l-6 -33 -1049 0 -1049 0 -6 33 c-2 17 -66 622 -140
1342 -158 1523 -212 2048 -221 2128 l-6 57 1421 0 c1347 0 1421 -1 1421 -17z"/>
<path d="M4043 3586 c-231 -75 -433 -271 -570 -552 -78 -161 -106 -276 -107
-439 0 -99 4 -145 17 -190 41 -133 121 -236 226 -289 244 -124 600 36 822 368
33 49 73 115 88 145 155 313 159 631 10 828 -104 138 -298 190 -486 129z m40
-289 c-159 -164 -176 -208 -177 -452 l-1 -180 -32 -60 c-17 -33 -49 -81 -70
-106 -43 -51 -139 -139 -152 -139 -15 0 -50 83 -62 146 -47 252 143 643 391
807 53 35 148 76 179 77 8 0 -26 -42 -76 -93z m300 -20 c31 -60 43 -165 29
-261 -31 -215 -143 -423 -307 -574 -69 -63 -208 -142 -249 -142 -18 1 -19 2
-4 10 33 20 142 167 177 240 l36 75 5 200 5 200 34 50 c44 64 228 248 243 243
7 -3 20 -21 31 -41z"/>
</g>
</svg>
